M48
;DRILL file {KiCad 4.0.0-rc2-1-stable} date Tuesday, December 29, 2015 'PMt' 08:30:24 PM
;FORMAT={-:-/ absolute / inch / decimal}
FMAT,2
INCH,TZ
T1C0.016
T2C0.031
T3C0.032
T4C0.036
T5C0.040
T6C0.043
T7C0.047
T8C0.053
T9C0.063
T10C0.071
T11C0.091
T12C0.106
T13C0.126
%
G90
G05
M72
T1
X3.96Y-2.725
X3.965Y-1.81
X3.97Y-3.83
X3.995Y-2.725
X4.005Y-1.81
X4.045Y-1.81
X4.06Y-4.13
X4.095Y-3.655
X4.155Y-4.08
X4.155Y-4.13
X4.155Y-4.03
X4.186Y-1.883
X4.197Y-1.81
X4.215Y-3.185
X4.215Y-3.22
X4.215Y-3.255
X4.229Y-1.883
X4.248Y-2.184
X4.26Y-3.64
X4.26Y-3.855
X4.4275Y-2.405
X4.475Y-3.575
X4.5Y-1.921
X4.5024Y-3.89
X4.505Y-3.185
X4.505Y-3.22
X4.505Y-3.255
X4.5074Y-3.705
X4.51Y-2.787
X4.552Y-1.921
X4.56Y-3.47
X4.56Y-3.425
X4.577Y-2.6604
X4.605Y-3.425
X4.605Y-3.47
X4.655Y-3.495
X4.691Y-3.733
X4.7775Y-2.8642
X4.785Y-2.505
X4.7989Y-2.899
X4.805Y-2.965
X4.82Y-2.535
X4.82Y-3.25
X4.852Y-2.8642
X4.86Y-2.5708
X4.865Y-3.443
X4.885Y-4.495
X4.93Y-3.3
X4.93Y-3.34
X4.93Y-3.38
X4.97Y-2.9684
X4.97Y-3.0084
X4.97Y-2.9284
X4.985Y-3.39
X5.03Y-4.44
X5.03Y-4.4784
X5.03Y-4.5184
X5.0554Y-3.215
X5.0675Y-3.48
X5.107Y-3.14
X5.14Y-2.3216
X5.14Y-2.3616
X5.14Y-2.4
X5.165Y-3.0475
X5.165Y-3.0025
X5.165Y-3.0875
X5.21Y-3.905
X5.225Y-4.1328
X5.2391Y-2.7332
X5.2414Y-3.6379
X5.242Y-3.5156
X5.2473Y-3.5726
X5.2582Y-3.2027
X5.2586Y-3.2585
X5.2624Y-3.1479
X5.2647Y-3.608
X5.268Y-4.052
X5.2769Y-3.3659
X5.2789Y-3.5517
X5.282Y-3.3112
X5.2841Y-3.2304
X5.296Y-3.2674
X5.3035Y-3.5839
X5.31Y-4.075
X5.31Y-4.47
X5.31Y-4.5084
X5.31Y-4.5484
X5.3296Y-3.3894
X5.3392Y-3.569
X5.351Y-3.4508
X5.3518Y-3.6398
X5.3532Y-3.3361
X5.3617Y-3.6033
X5.3622Y-3.414
X5.3649Y-3.3757
X5.4132Y-3.4636
X5.4433Y-3.4406
X5.4643Y-3.4082
X5.4704Y-2.6955
X5.474Y-4.26
X5.4775Y-3.5918
X5.482Y-4.114
X5.4848Y-2.869
X5.4909Y-3.6727
X5.4913Y-3.3449
X5.4932Y-3.306
X5.4933Y-3.3827
X5.5087Y-3.6392
X5.5267Y-3.3312
X5.5276Y-4.2389
X5.53Y-2.3684
X5.53Y-2.4084
X5.53Y-2.3284
X5.5328Y-3.4924
X5.5405Y-2.7518
X5.55Y-3.3014
X5.5542Y-3.2637
X5.5583Y-3.2261
X5.56Y-4.55
X5.5668Y-3.6504
X5.5753Y-3.5315
X5.5848Y-3.4413
X5.5996Y-3.6984
X5.6049Y-3.6567
X5.6143Y-3.7702
X5.6166Y-3.5119
X5.6275Y-2.8875
X5.634Y-3.8756
X5.6364Y-3.6777
X5.649Y-3.7548
X5.6496Y-3.4043
X5.6498Y-3.3664
X5.6538Y-3.7168
X5.6627Y-3.1575
X5.6632Y-3.5687
X5.6657Y-4.304
X5.6675Y-2.8875
X5.6687Y-3.7873
X5.6695Y-3.4367
X5.6705Y-3.261
X5.6719Y-3.8758
X5.6725Y-4.2396
X5.6786Y-2.6951
X5.681Y-3.999
X5.6859Y-3.8211
X5.6915Y-3.5943
X5.6964Y-3.2094
X5.7004Y-3.1544
X5.7035Y-3.5058
X5.7066Y-3.8606
X5.7094Y-3.78
X5.7125Y-3.0375
X5.72Y-2.695
X5.722Y-3.997
X5.7235Y-3.6146
X5.7341Y-3.1992
X5.7407Y-3.8132
X5.7648Y-3.6515
X5.7781Y-4.2284
X5.7787Y-3.4043
X5.7811Y-4.1732
X5.7862Y-3.683
X5.787Y-2.2194
X5.7889Y-3.1811
X5.79Y-2.2571
X5.7907Y-2.3093
X5.7978Y-3.8162
X5.8214Y-4.4845
X5.8218Y-3.1623
X5.8265Y-3.3222
X5.8283Y-3.8387
X5.8319Y-3.3788
X5.8342Y-3.4272
X5.8399Y-3.7229
X5.8409Y-3.685
X5.841Y-4.1635
X5.8486Y-3.8706
X5.849Y-4.095
X5.8495Y-4.2704
X5.8495Y-4.3196
X5.8579Y-3.1507
X5.875Y-3.7018
X5.8809Y-3.393
X5.8829Y-3.3343
X5.8839Y-3.8527
X5.8848Y-3.7566
X5.8848Y-4.1654
X5.8894Y-3.2916
X5.8956Y-3.1476
X5.8987Y-4.2704
X5.8987Y-4.3196
X5.9218Y-3.8528
X5.9226Y-3.7571
X5.9271Y-3.2979
X5.9334Y-3.1455
X5.9465Y-4.3623
X5.9526Y-3.8749
X5.96Y-4.4
X5.9643Y-3.3249
X5.9712Y-3.1488
X5.9794Y-4.2178
X5.9905Y-4.2951
X5.995Y-3.9104
X6.0255Y-3.933
X6.035Y-2.845
X6.0425Y-2.6992
X6.0599Y-3.0701
X6.073Y-3.2289
X6.1016Y-4.1789
X6.1075Y-3.0704
X6.1089Y-4.3731
X6.1124Y-4.2925
X6.128Y-4.237
X6.1336Y-1.9537
X6.1521Y-1.9894
X6.1577Y-4.2929
X6.1648Y-3.3545
X6.1649Y-3.1865
X6.1679Y-2.408
X6.179Y-4.3763
X6.1817Y-2.4517
X6.186Y-3.767
X6.1955Y-4.2925
X6.205Y-3.08
X6.215Y-3.1775
X6.2285Y-3.9693
X6.2341Y-2.3059
X6.2451Y-4.0301
X6.2697Y-4.4435
X6.28Y-1.86
X6.2891Y-3.8569
X6.3Y-3.1125
X6.3074Y-1.9037
X6.3083Y-4.0865
X6.3167Y-3.2983
X6.3277Y-1.8429
X6.3313Y-2.3902
X6.3437Y-4.1075
X6.364Y-4.06
X6.3678Y-3.0756
X6.3705Y-3.8546
X6.3755Y-3.3749
X6.3784Y-3.4209
X6.39Y-4.58
X6.3912Y-3.8905
X6.3915Y-3.4589
X6.3916Y-3.0342
X6.3977Y-4.0801
X6.41Y-2.53
X6.4228Y-3.4044
X6.4228Y-4.0487
X6.4259Y-4.2662
X6.4273Y-3.6582
X6.4333Y-3.6034
X6.4337Y-2.4337
X6.4337Y-2.48
X6.4426Y-1.8805
X6.4442Y-3.7353
X6.4464Y-3.0302
X6.4465Y-1.9181
X6.4473Y-1.8429
X6.4497Y-3.5149
X6.4554Y-1.9577
X6.4572Y-3.6346
X6.47Y-4.288
X6.4708Y-3.7903
X6.4749Y-3.828
X6.4774Y-4.2314
X6.48Y-2.4337
X6.48Y-2.48
X6.483Y-3.6918
X6.4875Y-3.2225
X6.4928Y-3.5874
X6.496Y-4.317
X6.5057Y-3.7497
X6.508Y-3.6627
X6.5194Y-3.6254
X6.5242Y-3.4991
X6.525Y-4.955
X6.5283Y-4.2852
X6.5298Y-3.8218
X6.5314Y-3.571
X6.538Y-4.0194
X6.5439Y-2.2871
X6.5452Y-4.323
X6.5609Y-3.4868
X6.5622Y-3.5479
X6.5672Y-3.828
X6.575Y-3.945
X6.5956Y-3.5301
X6.5969Y-3.7732
X6.6051Y-3.828
X6.6062Y-3.3104
X6.6429Y-3.8293
X6.643Y-1.8648
X6.65Y-3.0416
X6.65Y-2.9616
X6.65Y-3.0016
X6.6512Y-1.9387
X6.66Y-3.265
X6.6809Y-1.8646
X6.689Y-1.95
X6.7074Y-1.916
X6.7185Y-3.6513
X6.7393Y-3.7137
X6.7395Y-3.1596
X6.74Y-3.122
X6.7442Y-3.2304
X6.7657Y-3.8029
X6.7657Y-3.7651
X6.7702Y-3.5884
X6.7819Y-3.7133
X6.7853Y-3.5537
X6.805Y-2.73
X6.8221Y-3.3915
X6.8321Y-3.4631
X6.8471Y-3.8503
X6.86Y-3.2325
X6.868Y-3.882
X6.8821Y-3.4359
X6.8841Y-3.715
X6.8882Y-3.535
X6.915Y-4.89
X6.9357Y-3.63
X7.07Y-3.225
X7.07Y-3.265
X7.075Y-2.855
X7.075Y-2.9
X7.075Y-2.945
X7.21Y-4.325
X7.2142Y-4.0159
X7.245Y-3.685
X7.32Y-4.12
X7.3517Y-2.9872
X7.41Y-4.
X7.6Y-4.07
X7.6Y-4.115
X7.6Y-4.21
X7.6396Y-2.71
X7.6396Y-2.75
X7.6396Y-2.79
X7.6396Y-2.95
X7.64Y-2.91
X7.64Y-2.99
T2
X3.7178Y-4.1
X3.7178Y-4.2
X3.7178Y-4.3
X3.7192Y-2.54
X3.7192Y-2.64
X3.7192Y-2.74
T3
X7.2947Y-3.9613
X7.2947Y-4.0613
X7.3734Y-3.9613
X7.3734Y-4.0613
T4
X7.157Y-3.5
X7.2357Y-3.5
X7.3144Y-3.5
X7.3932Y-3.5
T5
X3.5Y-2.025
X3.5Y-2.125
X3.5Y-4.675
X3.5Y-4.775
X3.6Y-2.025
X3.6Y-2.125
X3.6Y-4.675
X3.6Y-4.775
X3.7Y-2.025
X3.7Y-2.125
X3.7Y-4.675
X3.7Y-4.775
X3.8Y-2.025
X3.8Y-2.125
X3.8Y-4.675
X3.8Y-4.775
X3.9Y-2.025
X3.9Y-2.125
X3.9Y-4.675
X3.9Y-4.775
X4.Y-2.025
X4.Y-2.125
X4.Y-4.675
X4.Y-4.775
X4.1Y-2.025
X4.1Y-2.125
X4.1Y-4.675
X4.1Y-4.775
X4.2Y-2.025
X4.2Y-2.125
X4.2Y-4.675
X4.2Y-4.775
X4.3Y-2.025
X4.3Y-2.125
X4.3Y-4.675
X4.3Y-4.775
X4.4Y-2.025
X4.4Y-2.125
X4.4Y-4.675
X4.4Y-4.775
X4.6Y-2.025
X4.6Y-2.125
X4.6Y-4.675
X4.6Y-4.775
X4.7Y-2.025
X4.7Y-2.125
X4.7Y-4.675
X4.7Y-4.775
X4.8Y-2.025
X4.8Y-2.125
X4.8Y-4.675
X4.8Y-4.775
X4.9Y-2.025
X4.9Y-2.125
X4.9Y-4.675
X4.9Y-4.775
X5.Y-2.025
X5.Y-2.125
X5.Y-4.675
X5.Y-4.775
X5.1Y-2.025
X5.1Y-2.125
X5.1Y-4.675
X5.1Y-4.775
X5.2Y-2.025
X5.2Y-2.125
X5.2Y-4.675
X5.2Y-4.775
X5.3Y-2.025
X5.3Y-2.125
X5.3Y-4.675
X5.3Y-4.775
X5.4Y-2.025
X5.4Y-2.125
X5.4Y-4.675
X5.4Y-4.775
X5.5Y-2.025
X5.5Y-2.125
X5.5Y-4.675
X5.5Y-4.775
X5.7Y-2.025
X5.7Y-2.125
X5.7Y-4.675
X5.7Y-4.775
X5.8Y-2.025
X5.8Y-2.125
X5.8Y-4.675
X5.8Y-4.775
X5.9Y-2.025
X5.9Y-2.125
X5.9Y-4.675
X5.9Y-4.775
X6.Y-2.025
X6.Y-2.125
X6.Y-4.675
X6.Y-4.775
X6.1Y-2.025
X6.1Y-2.125
X6.1Y-4.675
X6.1Y-4.775
X6.2Y-2.025
X6.2Y-2.125
X6.2Y-4.675
X6.2Y-4.775
X6.3Y-2.025
X6.3Y-2.125
X6.3Y-4.675
X6.3Y-4.775
X6.4Y-2.025
X6.4Y-2.125
X6.4Y-4.675
X6.4Y-4.775
X6.5Y-2.025
X6.5Y-2.125
X6.5Y-4.675
X6.5Y-4.775
X6.6Y-2.025
X6.6Y-2.125
X6.6Y-4.675
X6.6Y-4.775
X6.8Y-4.675
X6.8Y-4.775
X6.9Y-4.675
X6.9Y-4.775
X7.Y-4.675
X7.Y-4.775
X7.1Y-4.675
X7.1Y-4.775
X7.2Y-4.675
X7.2Y-4.775
X7.3Y-4.675
X7.3Y-4.775
X7.4Y-4.675
X7.4Y-4.775
X7.5Y-4.675
X7.5Y-4.775
X7.6Y-4.675
X7.6Y-4.775
X7.7Y-4.675
X7.7Y-4.775
T6
X3.6157Y-2.54
X3.6157Y-2.74
T7
X3.6405Y-3.7259
X4.0409Y-3.4011
X6.91Y-1.925
X7.06Y-1.925
X7.21Y-1.925
X7.36Y-1.925
T8
X7.1463Y-3.3929
X7.1463Y-3.6071
X7.4219Y-3.3929
X7.4219Y-3.6071
T9
X3.5157Y-3.5511
X3.7157Y-3.2511
X3.8657Y-3.5511
X3.8907Y-3.2511
T10
X7.7479Y-2.7527
X7.7479Y-2.9495
T11
X7.4797Y-3.7751
X7.4797Y-4.2475
T12
X4.Y-2.35
X4.Y-4.45
X4.5963Y-2.4354
X4.5963Y-4.3646
X6.8798Y-2.4354
X6.8798Y-4.3646
X7.6Y-2.35
X7.6Y-4.45
T13
X3.5678Y-4.05
X3.5678Y-4.35
T0
M30
