M48
;DRILL file {KiCad 4.0.0-rc2-1-stable} date Wednesday, December 30, 2015 'PMt' 10:58:47 PM
;FORMAT={-:-/ absolute / inch / decimal}
FMAT,2
INCH,TZ
T1C0.016
T2C0.031
T3C0.032
T4C0.036
T5C0.040
T6C0.043
T7C0.047
T8C0.053
T9C0.063
T10C0.071
T11C0.091
T12C0.106
T13C0.126
%
G90
G05
M72
T1
X3.9797Y-5.5297
X3.9797Y-5.5697
X3.9797Y-5.6097
X3.9797Y-5.3777
X4.0125Y-3.1274
X4.0125Y-3.247
X4.0297Y-3.2947
X4.0343Y-2.8938
X4.0345Y-2.9317
X4.0521Y-3.1314
X4.0527Y-5.3457
X4.0527Y-5.3887
X4.077Y-3.2673
X4.0856Y-2.8673
X4.0898Y-3.128
X4.0907Y-5.0227
X4.0907Y-5.0747
X4.1084Y-2.9235
X4.1197Y-2.8857
X4.1234Y-3.4411
X4.1274Y-3.1193
X4.1591Y-3.4226
X4.3537Y-5.3267
X4.3568Y-3.7654
X4.3647Y-3.8077
X4.4115Y-3.7788
X4.4568Y-3.0308
X4.4756Y-3.3406
X4.4913Y-4.4347
X4.4981Y-4.0447
X4.5147Y-3.2577
X4.5313Y-4.4347
X4.5381Y-4.0447
X4.5697Y-4.4347
X4.5747Y-5.1472
X4.5777Y-3.4112
X4.5781Y-4.0447
X4.6034Y-3.0947
X4.6034Y-3.141
X4.6226Y-3.4042
X4.6497Y-3.0947
X4.6497Y-3.141
X4.6747Y-4.7897
X4.6997Y-3.1647
X4.7056Y-4.7557
X4.7435Y-4.7178
X4.83Y-4.9977
X4.8647Y-3.8547
X4.8648Y-3.8961
X4.8652Y-4.1043
X4.8688Y-3.5322
X4.8797Y-1.9351
X4.8947Y-5.5797
X4.8947Y-5.6147
X4.8997Y-2.7697
X4.9029Y-4.3356
X4.9197Y-1.9351
X4.9215Y-4.0342
X4.9567Y-5.0647
X4.9597Y-1.9351
X5.0147Y-3.5397
X5.0247Y-2.4997
X5.0339Y-4.7227
X5.0339Y-4.7972
X5.0387Y-4.0899
X5.0572Y-3.9072
X5.0572Y-3.9472
X5.0686Y-4.7758
X5.0697Y-2.4997
X5.0797Y-1.9347
X5.0981Y-4.6047
X5.1147Y-2.4997
X5.1197Y-1.9351
X5.1313Y-2.9247
X5.1347Y-4.7697
X5.1381Y-4.6047
X5.1569Y-2.223
X5.1597Y-1.9347
X5.1713Y-2.9247
X5.1722Y-4.4097
X5.1781Y-4.6047
X5.1999Y-3.1283
X5.2039Y-3.1831
X5.2072Y-3.8622
X5.2113Y-2.9247
X5.2172Y-4.4097
X5.2398Y-3.5148
X5.24Y-3.4672
X5.2452Y-3.2069
X5.2497Y-3.3697
X5.2572Y-4.4097
X5.2822Y-3.2747
X5.2917Y-2.8347
X5.3097Y-4.4677
X5.3152Y-3.6413
X5.3173Y-3.6791
X5.3175Y-4.3074
X5.3185Y-3.6035
X5.3203Y-3.7168
X5.3241Y-3.8743
X5.3272Y-3.912
X5.3293Y-2.8352
X5.332Y-3.7529
X5.3472Y-3.3597
X5.3508Y-3.7858
X5.3547Y-5.0697
X5.3547Y-5.3597
X5.3562Y-3.4098
X5.3689Y-3.8406
X5.3723Y-4.3165
X5.3791Y-3.8783
X5.3847Y-4.5193
X5.3897Y-5.0697
X5.3897Y-5.3597
X5.3922Y-3.0872
X5.3947Y-2.5047
X5.3958Y-4.0164
X5.3986Y-3.5017
X5.4Y-2.8305
X5.4001Y-4.2906
X5.4022Y-2.7147
X5.4197Y-4.7547
X5.4247Y-5.0697
X5.4247Y-5.3597
X5.4282Y-4.3161
X5.4306Y-3.9042
X5.4334Y-4.0205
X5.4347Y-2.9147
X5.4347Y-2.5047
X5.4371Y-4.2787
X5.4612Y-3.6853
X5.4676Y-3.6476
X5.4679Y-3.258
X5.4697Y-4.6447
X5.471Y-4.0247
X5.4757Y-4.0815
X5.4801Y-2.9685
X5.4809Y-4.2927
X5.4919Y-3.7482
X5.4945Y-3.6104
X5.5009Y-4.048
X5.504Y-3.6918
X5.5057Y-4.2215
X5.5097Y-4.6447
X5.5146Y-4.0834
X5.5242Y-3.4099
X5.5356Y-4.2978
X5.5361Y-3.9249
X5.5446Y-3.1992
X5.5453Y-4.2098
X5.5485Y-3.7428
X5.5497Y-4.6447
X5.5524Y-4.0814
X5.5591Y-4.2451
X5.5597Y-4.5897
X5.5611Y-2.7526
X5.5627Y-3.6938
X5.5739Y-3.9251
X5.574Y-3.796
X5.574Y-3.1519
X5.5779Y-4.1104
X5.5837Y-4.2125
X5.5906Y-3.1963
X5.5947Y-4.9697
X5.5947Y-5.0147
X5.5969Y-3.7405
X5.6056Y-2.6926
X5.6064Y-3.9052
X5.6102Y-4.1314
X5.611Y-3.9899
X5.6127Y-4.7097
X5.6204Y-4.2238
X5.6286Y-3.1832
X5.6328Y-2.7426
X5.6333Y-4.1615
X5.6397Y-4.9697
X5.6397Y-5.0147
X5.6497Y-4.5072
X5.6565Y-3.0138
X5.6621Y-4.0419
X5.6647Y-4.9197
X5.6688Y-3.0505
X5.6755Y-3.8712
X5.6816Y-3.9581
X5.6846Y-3.125
X5.6853Y-4.3327
X5.6998Y-2.9791
X5.7012Y-3.9994
X5.7047Y-2.6865
X5.7176Y-3.0126
X5.7213Y-4.2958
X5.7234Y-2.7894
X5.7384Y-3.9115
X5.7387Y-4.2355
X5.7406Y-3.0433
X5.7422Y-4.3274
X5.7447Y-5.0997
X5.7535Y-4.2712
X5.7571Y-3.0819
X5.7581Y-2.8045
X5.7615Y-4.0972
X5.764Y-3.8832
X5.7729Y-4.213
X5.7731Y-3.1414
X5.7776Y-4.31
X5.7843Y-3.8512
X5.7951Y-3.0553
X5.7997Y-2.639
X5.8043Y-3.1176
X5.8076Y-4.3333
X5.8089Y-4.066
X5.8095Y-4.2229
X5.8097Y-5.3147
X5.8201Y-4.0079
X5.821Y-2.8562
X5.8211Y-3.8099
X5.8247Y-5.4797
X5.8263Y-3.9698
X5.8279Y-3.1474
X5.8324Y-3.0667
X5.8424Y-4.0838
X5.8473Y-3.9383
X5.8527Y-3.7885
X5.8547Y-2.3297
X5.8547Y-3.7338
X5.8615Y-3.0917
X5.868Y-3.9751
X5.8715Y-3.6997
X5.8747Y-5.0673
X5.883Y-2.7928
X5.8834Y-2.8354
X5.8847Y-2.6906
X5.8865Y-3.9209
X5.8926Y-3.7348
X5.9027Y-4.8837
X5.905Y-3.1305
X5.9194Y-3.069
X5.9245Y-3.9257
X5.9263Y-3.6899
X5.9268Y-3.6521
X5.93Y-3.395
X5.9347Y-2.809
X5.9398Y-3.9604
X5.9429Y-2.9778
X5.9497Y-3.8653
X5.9569Y-3.906
X5.96Y-3.1039
X5.9726Y-2.809
X5.9829Y-3.834
X5.9859Y-3.7769
X5.9907Y-3.8888
X5.9915Y-3.0449
X5.9976Y-2.9696
X5.9976Y-3.0075
X5.9976Y-3.0998
X5.999Y-2.9318
X5.9997Y-5.6047
X6.0083Y-3.7464
X6.02Y-2.7276
X6.0224Y-3.6908
X6.0225Y-3.6529
X6.0242Y-3.2042
X6.0247Y-5.3147
X6.0266Y-3.2856
X6.0303Y-3.8681
X6.0403Y-3.7261
X6.0445Y-3.6221
X6.0452Y-3.9407
X6.0455Y-3.9028
X6.0517Y-2.7067
X6.0597Y-5.0723
X6.0602Y-3.1835
X6.0747Y-4.3647
X6.0801Y-3.5797
X6.1026Y-3.5492
X6.1147Y-2.9997
X6.1389Y-3.3462
X6.1547Y-4.3047
X6.1547Y-4.2647
X6.1667Y-3.8527
X6.1687Y-3.8937
X6.1697Y-2.1647
X6.1856Y-2.3605
X6.189Y-3.0367
X6.1997Y-5.4197
X6.1997Y-3.3296
X6.2184Y-3.1519
X6.2292Y-4.3096
X6.2297Y-3.2107
X6.2397Y-1.9747
X6.2447Y-4.2647
X6.2497Y-5.4197
X6.2498Y-3.177
X6.2562Y-3.2664
X6.2647Y-3.7257
X6.2771Y-3.231
X6.2837Y-4.0927
X6.2847Y-1.9747
X6.2897Y-2.2547
X6.2997Y-5.4197
X6.2997Y-5.5147
X6.3025Y-4.3497
X6.3297Y-3.7853
X6.3331Y-3.7306
X6.335Y-3.6899
X6.3476Y-3.4748
X6.3797Y-1.9747
X6.3874Y-3.597
X6.3981Y-3.7966
X6.4011Y-3.0973
X6.4032Y-3.4454
X6.4064Y-4.0414
X6.4093Y-3.9022
X6.4297Y-4.0942
X6.4359Y-3.1488
X6.44Y-3.676
X6.44Y-3.7252
X6.4549Y-3.0464
X6.4577Y-3.1047
X6.4607Y-3.4623
X6.4616Y-3.375
X6.4622Y-3.4129
X6.4648Y-3.5842
X6.4736Y-3.909
X6.4867Y-3.0787
X6.4893Y-3.676
X6.4893Y-3.7252
X6.4927Y-3.0295
X6.4947Y-2.3647
X6.532Y-3.6282
X6.5428Y-3.4658
X6.546Y-3.3957
X6.5697Y-3.6147
X6.6097Y-4.5447
X6.6132Y-3.305
X6.6397Y-4.2647
X6.6481Y-4.5447
X6.6542Y-3.7533
X6.6647Y-4.6897
X6.6781Y-4.2647
X6.6881Y-4.5447
X6.7181Y-4.2647
X6.7197Y-4.0147
X6.7497Y-3.1847
X7.0597Y-2.6597
X7.1247Y-3.0497
T2
X4.7097Y-5.8555
X4.8097Y-5.8555
X4.9097Y-5.8555
X6.2697Y-5.8569
X6.3697Y-5.8569
X6.4697Y-5.8569
T3
X6.131Y-2.2013
X6.131Y-2.28
X6.231Y-2.2013
X6.231Y-2.28
T4
X5.6697Y-2.1815
X5.6697Y-2.2603
X5.6697Y-2.339
X5.6697Y-2.4178
T5
X4.1947Y-2.9747
X4.1947Y-3.0747
X4.1947Y-3.1747
X4.1947Y-3.2747
X4.1947Y-3.3747
X4.1947Y-3.4747
X4.1947Y-3.5747
X4.1947Y-3.6747
X4.1947Y-3.7747
X4.1947Y-3.8747
X4.1947Y-4.0747
X4.1947Y-4.1747
X4.1947Y-4.2747
X4.1947Y-4.3747
X4.1947Y-4.4747
X4.1947Y-4.5747
X4.1947Y-4.6747
X4.1947Y-4.7747
X4.1947Y-4.8747
X4.1947Y-4.9747
X4.1947Y-5.1747
X4.1947Y-5.2747
X4.1947Y-5.3747
X4.1947Y-5.4747
X4.1947Y-5.5747
X4.1947Y-5.6747
X4.1947Y-5.7747
X4.1947Y-5.8747
X4.1947Y-5.9747
X4.1947Y-6.0747
X4.2947Y-2.9747
X4.2947Y-3.0747
X4.2947Y-3.1747
X4.2947Y-3.2747
X4.2947Y-3.3747
X4.2947Y-3.4747
X4.2947Y-3.5747
X4.2947Y-3.6747
X4.2947Y-3.7747
X4.2947Y-3.8747
X4.2947Y-4.0747
X4.2947Y-4.1747
X4.2947Y-4.2747
X4.2947Y-4.3747
X4.2947Y-4.4747
X4.2947Y-4.5747
X4.2947Y-4.6747
X4.2947Y-4.7747
X4.2947Y-4.8747
X4.2947Y-4.9747
X4.2947Y-5.1747
X4.2947Y-5.2747
X4.2947Y-5.3747
X4.2947Y-5.4747
X4.2947Y-5.5747
X4.2947Y-5.6747
X4.2947Y-5.7747
X4.2947Y-5.8747
X4.2947Y-5.9747
X4.2947Y-6.0747
X6.8447Y-1.8747
X6.8447Y-1.9747
X6.8447Y-2.0747
X6.8447Y-2.1747
X6.8447Y-2.2747
X6.8447Y-2.3747
X6.8447Y-2.4747
X6.8447Y-2.5747
X6.8447Y-2.6747
X6.8447Y-2.7747
X6.8447Y-2.9747
X6.8447Y-3.0747
X6.8447Y-3.1747
X6.8447Y-3.2747
X6.8447Y-3.3747
X6.8447Y-3.4747
X6.8447Y-3.5747
X6.8447Y-3.6747
X6.8447Y-3.7747
X6.8447Y-3.8747
X6.8447Y-4.0747
X6.8447Y-4.1747
X6.8447Y-4.2747
X6.8447Y-4.3747
X6.8447Y-4.4747
X6.8447Y-4.5747
X6.8447Y-4.6747
X6.8447Y-4.7747
X6.8447Y-4.8747
X6.8447Y-4.9747
X6.8447Y-5.1747
X6.8447Y-5.2747
X6.8447Y-5.3747
X6.8447Y-5.4747
X6.8447Y-5.5747
X6.8447Y-5.6747
X6.8447Y-5.7747
X6.8447Y-5.8747
X6.8447Y-5.9747
X6.8447Y-6.0747
X6.9447Y-1.8747
X6.9447Y-1.9747
X6.9447Y-2.0747
X6.9447Y-2.1747
X6.9447Y-2.2747
X6.9447Y-2.3747
X6.9447Y-2.4747
X6.9447Y-2.5747
X6.9447Y-2.6747
X6.9447Y-2.7747
X6.9447Y-2.9747
X6.9447Y-3.0747
X6.9447Y-3.1747
X6.9447Y-3.2747
X6.9447Y-3.3747
X6.9447Y-3.4747
X6.9447Y-3.5747
X6.9447Y-3.6747
X6.9447Y-3.7747
X6.9447Y-3.8747
X6.9447Y-4.0747
X6.9447Y-4.1747
X6.9447Y-4.2747
X6.9447Y-4.3747
X6.9447Y-4.4747
X6.9447Y-4.5747
X6.9447Y-4.6747
X6.9447Y-4.7747
X6.9447Y-4.8747
X6.9447Y-4.9747
X6.9447Y-5.1747
X6.9447Y-5.2747
X6.9447Y-5.3747
X6.9447Y-5.4747
X6.9447Y-5.5747
X6.9447Y-5.6747
X6.9447Y-5.7747
X6.9447Y-5.8747
X6.9447Y-5.9747
X6.9447Y-6.0747
T6
X4.7097Y-5.959
X4.9097Y-5.959
T7
X4.0947Y-2.2147
X4.0947Y-2.3647
X4.0947Y-2.5147
X4.0947Y-2.6647
X5.5708Y-5.5338
X5.8956Y-5.9342
T8
X5.5626Y-2.1528
X5.5626Y-2.4284
X5.7768Y-2.1528
X5.7768Y-2.4284
T9
X5.4208Y-5.684
X5.4208Y-5.859
X5.7208Y-5.709
X5.7208Y-6.059
T10
X4.9224Y-1.8268
X5.1192Y-1.8268
T11
X5.9448Y-2.095
X6.4172Y-2.095
T12
X4.5197Y-1.9747
X4.5197Y-5.5747
X4.6051Y-2.6949
X4.6051Y-4.9784
X6.5342Y-2.6949
X6.5342Y-4.9784
X6.6197Y-1.9747
X6.6197Y-5.5747
T13
X6.2197Y-6.0069
X6.5197Y-6.0069
T0
M30
