M48
;DRILL file {KiCad 4.0.0-rc2-1-stable} date Monday, December 07, 2015 'PMt' 01:20:23 PM
;FORMAT={-:-/ absolute / inch / decimal}
FMAT,2
INCH,TZ
T1C0.016
T2C0.030
T3C0.031
T4C0.032
T5C0.035
T6C0.036
T7C0.040
T8C0.043
T9C0.047
T10C0.053
T11C0.063
T12C0.071
T13C0.091
T14C0.122
T15C0.126
%
G90
G05
M72
T1
X3.7177Y-4.3691
X3.8157Y-2.5661
X3.8957Y-2.5361
X3.9887Y-3.9651
X4.0847Y-3.7931
X4.0927Y-3.9651
X4.0977Y-2.8961
X4.0987Y-3.4991
X4.1197Y-3.6211
X4.1452Y-3.7576
X4.1602Y-3.5202
X4.2287Y-3.7721
X4.2347Y-2.5831
X4.2757Y-3.2661
X4.2807Y-3.4271
X4.3557Y-4.2861
X4.7452Y-2.6121
X4.7907Y-2.5161
X4.8022Y-3.2624
X4.8597Y-3.7308
X4.8637Y-3.7706
X4.901Y-3.7371
X4.9032Y-3.7771
X4.9065Y-2.6926
X5.0101Y-3.4397
X5.0577Y-3.9201
X5.0597Y-4.0161
X5.0632Y-3.7688
X5.0697Y-2.5271
X5.0817Y-3.8105
X5.1262Y-3.8336
X5.1287Y-3.3726
X5.1307Y-3.5661
X5.1355Y-3.4638
X5.1407Y-3.7961
X5.1577Y-3.6281
X5.1627Y-3.5421
X5.167Y-3.3869
X5.1729Y-2.9357
X5.179Y-3.5055
X5.1818Y-3.4464
X5.2085Y-3.6296
X5.2125Y-2.943
X5.2216Y-3.4591
X5.2259Y-3.2417
X5.2377Y-3.5701
X5.2452Y-3.3003
X5.2484Y-2.9927
X5.2497Y-3.3607
X5.2515Y-2.952
X5.2659Y-3.242
X5.2662Y-3.7711
X5.2714Y-3.6482
X5.2727Y-4.3601
X5.2767Y-2.4601
X5.2845Y-3.3083
X5.2852Y-4.0379
X5.2868Y-3.0117
X5.3014Y-3.6192
X5.3045Y-3.9732
X5.3223Y-2.9934
X5.3242Y-3.2626
X5.3257Y-3.775
X5.3316Y-3.6454
X5.3404Y-3.0505
X5.3458Y-3.9231
X5.356Y-3.3428
X5.3647Y-3.7661
X5.3687Y-3.5911
X5.3726Y-3.8933
X5.3787Y-3.0233
X5.3957Y-2.6891
X5.3984Y-3.6484
X5.4113Y-3.5879
X5.4119Y-3.5479
X5.412Y-3.1854
X5.4161Y-3.288
X5.4316Y-3.897
X5.4549Y-3.2415
X5.4702Y-3.9077
X5.4785Y-3.2092
X5.4807Y-3.3011
X5.51Y-3.1178
X5.5177Y-3.8681
X5.5289Y-3.8222
X5.5323Y-3.3948
X5.5358Y-3.7603
X5.5436Y-4.0466
X5.5467Y-3.1431
X5.5488Y-4.007
X5.5573Y-3.794
X5.5577Y-2.6321
X5.5589Y-3.8531
X5.572Y-3.3905
X5.5927Y-3.9046
X5.6671Y-3.1556
X5.6707Y-3.0041
X5.6717Y-3.9481
X5.6847Y-4.1881
X5.6903Y-3.1223
X5.704Y-3.3166
X5.7072Y-3.3565
X5.7107Y-2.9438
X5.711Y-3.4507
X5.7173Y-3.5053
X5.7179Y-4.1369
X5.7262Y-3.3917
X5.7431Y-3.4746
X5.7463Y-3.5359
X5.7497Y-2.9251
X5.7551Y-3.2104
X5.7557Y-3.2504
X5.7597Y-4.1431
X5.7774Y-3.567
X5.7857Y-3.1761
X5.7887Y-3.0686
X5.8069Y-3.2627
X5.8088Y-3.3322
X5.8119Y-3.5873
X5.8167Y-4.1221
X5.8214Y-3.0452
X5.8223Y-3.8145
X5.8243Y-3.7745
X5.8263Y-3.3936
X5.8273Y-3.165
X5.8322Y-2.8211
X5.8471Y-3.6063
X5.8494Y-3.262
X5.9102Y-3.7061
X5.9397Y-2.7411
X5.9547Y-2.8701
X5.9592Y-3.0146
X5.9595Y-3.1221
X6.0187Y-3.6366
X6.0687Y-3.9414
X6.0865Y-2.6613
X6.1137Y-3.0171
X6.1297Y-3.4381
X6.1307Y-3.1411
X6.2337Y-3.436
X6.2487Y-3.1477
X6.2603Y-3.3797
X6.266Y-3.3207
X6.2697Y-2.6591
X6.2788Y-3.4154
X6.2807Y-2.7601
X6.2961Y-3.3534
X6.2972Y-3.9334
X6.3002Y-3.6098
X6.3616Y-3.2088
X6.3637Y-3.9091
X6.4041Y-3.6719
X6.4227Y-3.2227
X6.4277Y-3.9111
X6.4297Y-2.7611
X6.4324Y-3.6437
X6.4627Y-2.9241
X6.4865Y-3.2966
X6.4886Y-3.2326
X6.4975Y-3.3556
X6.5037Y-3.559
X6.5265Y-3.2966
X6.5355Y-2.7743
X6.5375Y-3.3556
X6.5657Y-3.8961
X6.5747Y-3.0411
X6.5781Y-3.3648
X6.5894Y-3.4428
X6.6104Y-3.5968
X6.6107Y-4.1111
X6.6171Y-3.356
X6.6212Y-2.9286
X6.6451Y-3.3853
X6.6557Y-3.1651
X6.6827Y-2.9351
X6.6987Y-2.6341
X6.6998Y-3.5939
X6.7091Y-3.3599
X6.7215Y-3.1027
X6.7367Y-2.8941
X6.7386Y-3.3313
X6.7415Y-3.588
X6.7674Y-2.6714
X6.7674Y-3.3011
X6.7821Y-3.5897
X6.8074Y-3.3023
X6.8407Y-3.4216
X6.8407Y-3.5376
X6.8687Y-4.1626
X6.8767Y-2.6081
X6.8807Y-3.7561
X6.8852Y-3.1856
X6.8907Y-2.9861
X6.9261Y-3.2554
X6.9327Y-2.5631
X7.038Y-2.8958
X7.0717Y-4.1241
X7.0751Y-2.8221
X7.1127Y-3.6381
X7.1227Y-3.7048
X7.1829Y-3.6241
X7.2867Y-3.1891
T2
X3.9722Y-2.6405
X6.6607Y-2.5261
X6.7257Y-2.5261
T3
X3.0192Y-2.5561
X3.0192Y-2.6561
X3.0192Y-2.7561
X3.0357Y-4.0461
X3.0357Y-4.1461
X3.0357Y-4.2461
T4
X7.3047Y-3.9413
X7.3047Y-4.0413
X7.3834Y-3.9413
X7.3834Y-4.0413
T5
X3.5957Y-3.7061
X3.9894Y-3.7061
T6
X7.167Y-3.3811
X7.2457Y-3.3811
X7.3244Y-3.3811
X7.4032Y-3.3811
T7
X3.1457Y-2.2561
X3.1457Y-2.3561
X3.1457Y-4.4561
X3.1457Y-4.5561
X3.2457Y-2.2561
X3.2457Y-2.3561
X3.2457Y-4.4561
X3.2457Y-4.5561
X3.3457Y-2.2561
X3.3457Y-2.3561
X3.3457Y-4.4561
X3.3457Y-4.5561
X3.4457Y-2.2561
X3.4457Y-2.3561
X3.4457Y-4.4561
X3.4457Y-4.5561
X3.5457Y-2.2561
X3.5457Y-2.3561
X3.5457Y-4.4561
X3.5457Y-4.5561
X3.6457Y-2.2561
X3.6457Y-2.3561
X3.6457Y-4.4561
X3.6457Y-4.5561
X3.7457Y-2.2561
X3.7457Y-2.3561
X3.7457Y-4.4561
X3.7457Y-4.5561
X3.8457Y-2.2561
X3.8457Y-2.3561
X3.8457Y-4.4561
X3.8457Y-4.5561
X3.9457Y-2.2561
X3.9457Y-2.3561
X3.9457Y-4.4561
X3.9457Y-4.5561
X4.0457Y-2.2561
X4.0457Y-2.3561
X4.0457Y-4.4561
X4.0457Y-4.5561
X4.2457Y-2.2561
X4.2457Y-2.3561
X4.2457Y-4.4561
X4.2457Y-4.5561
X4.3457Y-2.2561
X4.3457Y-2.3561
X4.3457Y-4.4561
X4.3457Y-4.5561
X4.4457Y-2.2561
X4.4457Y-2.3561
X4.4457Y-4.4561
X4.4457Y-4.5561
X4.5457Y-2.2561
X4.5457Y-2.3561
X4.5457Y-4.4561
X4.5457Y-4.5561
X4.6457Y-2.2561
X4.6457Y-2.3561
X4.6457Y-4.4561
X4.6457Y-4.5561
X4.7457Y-2.2561
X4.7457Y-2.3561
X4.7457Y-4.4561
X4.7457Y-4.5561
X4.8457Y-2.2561
X4.8457Y-2.3561
X4.8457Y-4.4561
X4.8457Y-4.5561
X4.9457Y-2.2561
X4.9457Y-2.3561
X4.9457Y-4.4561
X4.9457Y-4.5561
X5.0457Y-2.2561
X5.0457Y-2.3561
X5.0457Y-4.4561
X5.0457Y-4.5561
X5.1457Y-2.2561
X5.1457Y-2.3561
X5.1457Y-4.4561
X5.1457Y-4.5561
X5.3457Y-2.2561
X5.3457Y-2.3561
X5.3457Y-4.4561
X5.3457Y-4.5561
X5.4457Y-2.2561
X5.4457Y-2.3561
X5.4457Y-4.4561
X5.4457Y-4.5561
X5.5457Y-2.2561
X5.5457Y-2.3561
X5.5457Y-4.4561
X5.5457Y-4.5561
X5.6457Y-2.2561
X5.6457Y-2.3561
X5.6457Y-4.4561
X5.6457Y-4.5561
X5.7457Y-2.2561
X5.7457Y-2.3561
X5.7457Y-4.4561
X5.7457Y-4.5561
X5.8457Y-2.2561
X5.8457Y-2.3561
X5.8457Y-4.4561
X5.8457Y-4.5561
X5.9457Y-2.2561
X5.9457Y-2.3561
X5.9457Y-4.4561
X5.9457Y-4.5561
X6.0457Y-2.2561
X6.0457Y-2.3561
X6.0457Y-4.4561
X6.0457Y-4.5561
X6.1457Y-2.2561
X6.1457Y-2.3561
X6.1457Y-4.4561
X6.1457Y-4.5561
X6.2457Y-2.2561
X6.2457Y-2.3561
X6.2457Y-4.4561
X6.2457Y-4.5561
X6.4457Y-4.4561
X6.4457Y-4.5561
X6.5457Y-4.4561
X6.5457Y-4.5561
X6.6457Y-4.4561
X6.6457Y-4.5561
X6.7457Y-4.4561
X6.7457Y-4.5561
X6.8457Y-4.4561
X6.8457Y-4.5561
X6.9457Y-4.4561
X6.9457Y-4.5561
X7.0457Y-4.4561
X7.0457Y-4.5561
X7.1457Y-4.4561
X7.1457Y-4.5561
X7.2457Y-4.4561
X7.2457Y-4.5561
X7.3457Y-4.4561
X7.3457Y-4.5561
T8
X2.9157Y-2.5561
X2.9157Y-2.7561
T9
X2.9205Y-3.7059
X3.3209Y-3.3811
X6.7957Y-2.1561
X6.9457Y-2.1561
X7.0957Y-2.1561
X7.2457Y-2.1561
T10
X7.1563Y-3.274
X7.1563Y-3.4882
X7.4319Y-3.274
X7.4319Y-3.4882
T11
X2.7957Y-3.5311
X2.9957Y-3.2311
X3.1457Y-3.5311
X3.1707Y-3.2311
T12
X7.7579Y-2.7327
X7.7579Y-2.9295
T13
X7.4897Y-3.7551
X7.4897Y-4.2275
T14
X2.8457Y-2.2061
X2.8457Y-4.6061
X7.6457Y-2.2061
X7.6457Y-4.6061
T15
X2.8857Y-3.9961
X2.8857Y-4.2961
T0
M30
