G04 #@! TF.FileFunction,Soldermask,Bot*
%FSLAX46Y46*%
G04 Gerber Fmt 4.6, Leading zero omitted, Abs format (unit mm)*
G04 Created by KiCad (PCBNEW 4.0.0-rc2-1-stable) date Wednesday, December 30, 2015 'PMt' 10:58:44 PM*
%MOMM*%
G01*
G04 APERTURE LIST*
%ADD10C,0.100000*%
%ADD11C,2.800000*%
%ADD12R,2.800000X2.800000*%
%ADD13C,3.100000*%
%ADD14C,2.200000*%
%ADD15C,1.900000*%
%ADD16C,4.900000*%
%ADD17C,1.924000*%
%ADD18C,3.100020*%
%ADD19C,3.200000*%
%ADD20C,3.000000*%
%ADD21C,3.600000*%
%ADD22C,2.020000*%
%ADD23C,2.250000*%
%ADD24C,2.127200*%
%ADD25O,2.127200X2.127200*%
%ADD26R,2.127200X2.127200*%
G04 APERTURE END LIST*
D10*
D11*
X104004737Y-63873441D03*
X104004737Y-67683441D03*
X104004737Y-60063441D03*
D12*
X104004737Y-56253441D03*
D13*
X130027917Y-46400881D03*
X125027917Y-46400881D03*
D14*
X124705737Y-151358881D03*
X119625737Y-151358881D03*
D15*
X124705737Y-148728881D03*
X119625737Y-148728881D03*
X122165737Y-148728881D03*
D16*
X165599737Y-152575441D03*
D15*
X164329737Y-148765441D03*
X159249737Y-148765441D03*
X161789737Y-148765441D03*
D16*
X157979737Y-152575441D03*
D17*
X158267917Y-57910881D03*
X155727917Y-57910881D03*
X155727917Y-55911901D03*
X158267917Y-55911901D03*
D18*
X162997397Y-53211881D03*
X150998437Y-53211881D03*
D19*
X149747917Y-150728881D03*
X141497917Y-140558881D03*
D20*
X145307917Y-153898881D03*
X137687917Y-148818881D03*
D21*
X137687917Y-144373881D03*
X145307917Y-145008881D03*
D22*
X144009737Y-55410881D03*
X144009737Y-57410881D03*
X144009737Y-59410881D03*
D23*
X146729737Y-54680881D03*
D22*
X144009737Y-61410881D03*
D23*
X146729737Y-61680881D03*
X141289737Y-54680881D03*
X141289737Y-61680881D03*
D24*
X109084737Y-75557441D03*
D25*
X106544737Y-75557441D03*
X109084737Y-78097441D03*
X106544737Y-78097441D03*
X109084737Y-80637441D03*
X106544737Y-80637441D03*
X109084737Y-83177441D03*
X106544737Y-83177441D03*
X109084737Y-85717441D03*
X106544737Y-85717441D03*
X109084737Y-88257441D03*
X106544737Y-88257441D03*
X109084737Y-90797441D03*
X106544737Y-90797441D03*
X109084737Y-93337441D03*
X106544737Y-93337441D03*
X109084737Y-95877441D03*
X106544737Y-95877441D03*
D26*
X109084737Y-98417441D03*
D25*
X106544737Y-98417441D03*
D24*
X109084737Y-103497441D03*
D25*
X106544737Y-103497441D03*
X109084737Y-106037441D03*
X106544737Y-106037441D03*
X109084737Y-108577441D03*
X106544737Y-108577441D03*
X109084737Y-111117441D03*
X106544737Y-111117441D03*
X109084737Y-113657441D03*
X106544737Y-113657441D03*
X109084737Y-116197441D03*
X106544737Y-116197441D03*
X109084737Y-118737441D03*
X106544737Y-118737441D03*
X109084737Y-121277441D03*
X106544737Y-121277441D03*
X109084737Y-123817441D03*
X106544737Y-123817441D03*
D26*
X109084737Y-126357441D03*
D25*
X106544737Y-126357441D03*
D24*
X109084737Y-131437441D03*
D25*
X106544737Y-131437441D03*
X109084737Y-133977441D03*
X106544737Y-133977441D03*
X109084737Y-136517441D03*
X106544737Y-136517441D03*
X109084737Y-139057441D03*
X106544737Y-139057441D03*
X109084737Y-141597441D03*
X106544737Y-141597441D03*
X109084737Y-144137441D03*
X106544737Y-144137441D03*
X109084737Y-146677441D03*
X106544737Y-146677441D03*
X109084737Y-149217441D03*
X106544737Y-149217441D03*
X109084737Y-151757441D03*
X106544737Y-151757441D03*
D26*
X109084737Y-154297441D03*
D25*
X106544737Y-154297441D03*
D24*
X173854737Y-154297441D03*
D25*
X176394737Y-154297441D03*
X173854737Y-151757441D03*
X176394737Y-151757441D03*
X173854737Y-149217441D03*
X176394737Y-149217441D03*
X173854737Y-146677441D03*
X176394737Y-146677441D03*
X173854737Y-144137441D03*
X176394737Y-144137441D03*
X173854737Y-141597441D03*
X176394737Y-141597441D03*
X173854737Y-139057441D03*
X176394737Y-139057441D03*
X173854737Y-136517441D03*
X176394737Y-136517441D03*
X173854737Y-133977441D03*
X176394737Y-133977441D03*
D26*
X173854737Y-131437441D03*
D25*
X176394737Y-131437441D03*
D24*
X173854737Y-126357441D03*
D25*
X176394737Y-126357441D03*
X173854737Y-123817441D03*
X176394737Y-123817441D03*
X173854737Y-121277441D03*
X176394737Y-121277441D03*
X173854737Y-118737441D03*
X176394737Y-118737441D03*
X173854737Y-116197441D03*
X176394737Y-116197441D03*
X173854737Y-113657441D03*
X176394737Y-113657441D03*
X173854737Y-111117441D03*
X176394737Y-111117441D03*
X173854737Y-108577441D03*
X176394737Y-108577441D03*
X173854737Y-106037441D03*
X176394737Y-106037441D03*
D26*
X173854737Y-103497441D03*
D25*
X176394737Y-103497441D03*
D24*
X173854737Y-98417441D03*
D25*
X176394737Y-98417441D03*
X173854737Y-95877441D03*
X176394737Y-95877441D03*
X173854737Y-93337441D03*
X176394737Y-93337441D03*
X173854737Y-90797441D03*
X176394737Y-90797441D03*
X173854737Y-88257441D03*
X176394737Y-88257441D03*
X173854737Y-85717441D03*
X176394737Y-85717441D03*
X173854737Y-83177441D03*
X176394737Y-83177441D03*
X173854737Y-80637441D03*
X176394737Y-80637441D03*
X173854737Y-78097441D03*
X176394737Y-78097441D03*
D26*
X173854737Y-75557441D03*
D25*
X176394737Y-75557441D03*
D24*
X173854737Y-70477441D03*
D25*
X176394737Y-70477441D03*
X173854737Y-67937441D03*
X176394737Y-67937441D03*
X173854737Y-65397441D03*
X176394737Y-65397441D03*
X173854737Y-62857441D03*
X176394737Y-62857441D03*
X173854737Y-60317441D03*
X176394737Y-60317441D03*
X173854737Y-57777441D03*
X176394737Y-57777441D03*
X173854737Y-55237441D03*
X176394737Y-55237441D03*
X173854737Y-52697441D03*
X176394737Y-52697441D03*
X173854737Y-50157441D03*
X176394737Y-50157441D03*
D26*
X173854737Y-47617441D03*
D25*
X176394737Y-47617441D03*
M02*
