<?xml version="1.0" encoding="utf-8"?>
<!-- Generator: Adobe Illustrator 16.0.4, SVG Export Plug-In . SVG Version: 6.00 Build 0)  -->
<!DOCTYPE svg PUBLIC "-//W3C//DTD SVG 1.1//EN" "http://www.w3.org/Graphics/SVG/1.1/DTD/svg11.dtd">
<svg version="1.1" id="Layer_1" xmlns="http://www.w3.org/2000/svg" xmlns:xlink="http://www.w3.org/1999/xlink" x="0px" y="0px"
	 width="470.5px" height="127.5px" viewBox="0 0 470.5 127.5" enable-background="new 0 0 470.5 127.5" xml:space="preserve">
<g>
	<path fill-rule="evenodd" clip-rule="evenodd" d="M38.785,56.098c-4.59,8.56-9.041,16.884-13.527,25.188
		c-0.365,0.675-0.854,1.435-1.489,1.785c-1.491,0.822-2.962,0.058-3.557-1.721c-2.665-7.973-5.311-15.952-7.966-23.928
		c-1.901-5.711-3.809-11.42-5.707-17.133c-0.67-2.019-0.038-2.95,2.085-2.983c2.406-0.038,4.813,0.019,7.219-0.02
		c1.49-0.023,2.362,0.616,2.833,2.048c1.997,6.073,4.047,12.128,6.083,18.188c0.116,0.347,0.276,0.679,0.504,1.231
		c2.042-3.832,3.995-7.494,5.944-11.159c1.753-3.296,3.538-6.578,5.233-9.904c0.565-1.109,1.363-1.524,2.542-1.519
		c1.195,0.004,1.975,0.493,2.539,1.573c3.38,6.477,6.803,12.932,10.213,19.392c0.239,0.453,0.498,0.894,0.915,1.638
		c1.261-3.723,2.424-7.132,3.57-10.547c0.982-2.925,1.981-5.846,2.901-8.792c0.468-1.498,1.391-2.17,2.941-2.147
		c2.299,0.034,4.6-0.021,6.898,0.017c2.144,0.035,2.866,1.08,2.185,3.126c-4.528,13.609-9.074,27.212-13.584,40.826
		c-0.366,1.105-0.817,1.935-2.112,2.048c-1.357,0.119-2.179-0.479-2.807-1.648c-4.262-7.943-8.559-15.869-12.847-23.798
		C39.52,57.352,39.221,56.857,38.785,56.098z"/>
	<path fill-rule="evenodd" clip-rule="evenodd" d="M363.418,36.182c12.461-0.017,22.955,10.663,22.969,23.376
		c0.016,12.976-10.355,23.726-22.932,23.772c-12.609,0.047-23.273-10.879-23.162-23.735
		C340.402,46.71,350.785,36.198,363.418,36.182z M352.668,60.312c0.016,0.267,0.029,0.534,0.047,0.801
		c0.424,6.889,7.486,11.705,14,9.516c4.201-1.413,7.932-6.171,7.301-12.359c-0.557-5.48-5.344-10.25-11.127-9.947
		C356.41,48.661,352.139,54.57,352.668,60.312z"/>
	<path fill-rule="evenodd" clip-rule="evenodd" d="M247.248,61.994c0.027,4.708,4.369,9.264,8.998,9.646
		c3.512,0.291,6.768-0.337,9.775-2.264c2.289-1.468,2.672-1.359,4.441,0.637c1.098,1.24,2.205,2.473,3.285,3.73
		c1.465,1.705,1.395,2.383-0.236,3.869c-3.52,3.209-7.725,4.943-12.383,5.479c-6.221,0.716-12.186-0.085-17.307-4.049
		c-7.501-5.807-10.537-13.544-9.187-22.861c1.328-9.16,6.323-15.814,15.13-18.768c12.971-4.35,24.74,2.794,27.625,13.831
		c0.684,2.617,0.6,5.478,0.578,8.224c-0.016,2.091-0.697,2.521-2.836,2.523c-8.717,0.006-17.434,0.002-26.148,0.002
		C248.404,61.994,247.826,61.994,247.248,61.994z M264.988,54.052c-0.584-4.539-3.859-7.488-8.109-7.494
		c-4.398-0.007-8.059,3.148-8.594,7.494C253.82,54.052,259.346,54.052,264.988,54.052z"/>
	<path fill-rule="evenodd" clip-rule="evenodd" d="M450.326,49.123c0,3.236-0.014,6.272,0.004,9.307
		c0.016,3.045-0.049,6.098,0.131,9.135c0.141,2.345,1.223,3.253,3.576,3.056c1.625-0.138,3.236-0.605,4.824-1.041
		c1.996-0.548,2.504-0.365,3.129,1.517c0.703,2.123,1.377,4.256,2.041,6.391c0.377,1.206,0.207,2.316-1.066,2.83
		c-5.354,2.154-10.871,3.657-16.682,2.688c-4.959-0.826-7.969-4.135-8.789-9.312c-0.314-1.992-0.367-4.038-0.383-6.06
		c-0.047-6.087-0.018-12.175-0.018-18.512c-1.154,0-2.199,0.023-3.246-0.005c-1.873-0.049-2.566-0.653-2.621-2.479
		c-0.066-2.298-0.066-4.6-0.002-6.897c0.051-1.78,0.805-2.415,2.643-2.444c0.908-0.014,1.818-0.014,2.727-0.029
		c0.098-0.002,0.195-0.063,0.5-0.169c0-1.512,0-3.097,0-4.682c0.002-2.46,0.012-4.919,0-7.379c-0.006-1.331,0.598-2.202,1.943-2.254
		c3.096-0.122,6.195-0.201,9.293-0.179c1.424,0.01,2.018,0.948,2.004,2.362c-0.031,3.476-0.008,6.952-0.008,10.427
		c0,0.574,0,1.149,0,1.903c3.082,0,6.006-0.002,8.932,0.001c2.535,0.002,3.176,0.659,3.184,3.25c0.004,1.765,0.004,3.529,0,5.294
		c-0.008,2.623-0.672,3.275-3.355,3.28C456.256,49.127,453.424,49.123,450.326,49.123z"/>
	<path fill-rule="evenodd" clip-rule="evenodd" d="M210.534,42.867c0-12.026-0.002-21.053,0.001-33.079
		c0-2.572,0.621-3.184,3.21-3.187c2.62-0.002,5.238-0.019,7.857,0.006c1.679,0.016,2.426,0.736,2.579,2.398
		c0.033,0.371,0.022,0.748,0.022,1.122c0.001,23.839,0.001,44.677,0.001,68.516c0,0.32,0.01,0.643-0.01,0.962
		c-0.116,1.859-0.852,2.585-2.714,2.6c-2.726,0.021-5.452,0.017-8.177,0.003c-2.115-0.012-2.765-0.656-2.767-2.781
		C210.53,67.24,210.534,55.054,210.534,42.867z"/>
	<path fill-rule="evenodd" clip-rule="evenodd" d="M406.432,43.042c3.146-4.26,7.123-6.598,12.195-6.814
		c2.621-0.111,5.24,0.102,7.641,1.34c1.777,0.917,2.08,1.921,1.123,3.64c-1.195,2.143-2.436,4.261-3.641,6.398
		c-0.721,1.275-1.631,1.831-3.16,1.272c-2.229-0.815-4.51-0.839-6.686,0.229c-2.578,1.266-4.271,2.908-4.166,6.259
		c0.238,7.637,0.076,15.285,0.074,22.93c0,3.486-0.439,3.916-3.99,3.917c-2.244,0-4.49,0.015-6.734-0.005
		c-1.955-0.018-2.699-0.76-2.701-2.725c-0.008-13.15-0.008-26.301,0-39.45c0.002-1.914,0.816-2.735,2.729-2.729
		c5.799,0.019,4.859-0.626,6.814,4.552C406.059,42.199,406.215,42.532,406.432,43.042z"/>
	<path fill-rule="evenodd" clip-rule="evenodd" d="M80.29,59.772c0-6.463-0.005-12.927,0.002-19.392
		c0.003-2.321,0.756-3.075,3.053-3.082c2.511-0.008,5.022-0.006,7.533,0c2.375,0.005,3.022,0.626,3.03,3.06
		c0.021,6.411,0.008,12.822,0.008,19.232c0,6.411,0.006,12.822-0.003,19.232c-0.004,2.863-0.534,3.387-3.347,3.389
		c-2.458,0.002-4.915,0.009-7.373-0.002c-2.143-0.009-2.894-0.74-2.898-2.884C80.281,72.808,80.29,66.29,80.29,59.772z"/>
	<path fill-rule="evenodd" clip-rule="evenodd" d="M86.902,29.281c-4.3-0.021-7.619-3.448-7.575-7.823
		c0.043-4.289,3.394-7.621,7.649-7.608c4.367,0.014,7.818,3.502,7.777,7.861C94.713,25.997,91.285,29.302,86.902,29.281z"/>
	<path fill-rule="evenodd" clip-rule="evenodd" d="M465.176,91.645c-0.358-0.359-2.394-2.242-7.203-4.034
		c-2.89-1.076-6.371-1.645-10.07-1.645c-4.332,0-8.483,0.767-12.006,2.218c-5.75,2.366-9.854,5.201-13.895,8.139
		c-2.207,1.604-4.325,3.245-6.373,4.832c-3.417,2.648-6.645,5.149-10.339,7.564c-2.52,1.648-5.388,3.357-9.285,4.691
		c-4.72,1.615-9.914,1.509-14.541-0.292c-4.766-1.855-8.152-4.14-11.773-6.718c-2.438-1.735-4.796-3.565-7.077-5.334
		c-3.215-2.493-6.539-5.072-10.259-7.539c-3.059-2.027-6.529-4.136-11.182-5.821c-3.384-1.224-6.961-1.845-10.634-1.845
		c-4.047,0-8.052,0.787-11.583,2.277c-5.713,2.41-10.01,5.219-14.703,8.694c-0.954,0.707-1.897,1.419-2.827,2.13
		c0-5.405,0-10.81,0.002-16.216c0.002-0.551,0.049-1.103,0.08-1.756c0.711,0.282,1.248,0.5,1.789,0.71
		c5.059,1.97,10.211,2.242,15.328,0.425c9.863-3.504,15.979-13.729,14.965-24.654c-0.684-7.38-3.803-13.441-9.908-17.681
		c-8.158-5.665-18.219-4.695-26.111,2.333c-0.162-0.25-0.271-0.369-0.326-0.509c-1.979-5.025-1.166-4.261-6.531-4.311
		c-2.338-0.022-3.074,0.719-3.08,3.045c-0.01,4.33-0.002,8.661-0.002,12.99c0,18.59-0.001,37.18,0.002,55.771
		c-2.314,1.475-4.559,2.671-6.948,3.679c-1.325,0.56-2.794,1.012-4.365,1.342c-3.513,0.738-6.912,0.573-10.411-0.51
		c-3.546-1.097-6.193-2.547-9.076-4.387c-4.052-2.586-7.541-5.287-11.234-8.146c-1.123-0.869-2.245-1.738-3.384-2.603
		c-3.942-2.995-8.848-6.722-15.412-9.741c-1.889-0.87-4.013-1.583-6.315-2.122c-5.398-1.262-10.935-1.035-16.089,0.657
		c-1.481,0.486-2.904,1.028-4.294,1.64c-2.232-2.891-5.647-5.06-9.836-6.012c-1.859-0.423-3.802-0.616-5.711-0.652
		c-4.865-0.09-9.732,0.001-14.599-0.048c-2.286-0.021-3.906-1.308-4.253-3.178c-0.34-1.83,0.92-3.962,2.966-4.58
		c0.971-0.293,2.112-0.231,3.141-0.086c3.981,0.562,7.948,0.967,11.946,0.15c8.29-1.695,14.562-9.422,14.24-17.715
		c-0.157-4.037-1.307-7.755-4.463-10.839c1.217-0.391,2.226-0.686,3.214-1.038c4.869-1.732,4.185-0.497,4.226-5.899
		c0.017-2.161-0.583-2.829-2.708-2.828c-7.111,0.004-14.229-0.118-21.33,0.147c-7.333,0.274-12.559,4.257-15.877,10.567
		c-3.414,6.491-2.575,12.966,1.001,19.363c-10.76,6.056-11.113,19.98,0.231,24.627c-0.563,0.428-1.13,0.737-1.539,1.189
		c-1.381,1.527-3.072,2.919-3.981,4.7c-2.566,5.028-0.816,11.247,3.934,15.208c0.553,0.461,1.123,0.879,1.707,1.258
		c-1.843,0.664-3.582,1.06-5.457,1.237c-3.038,0.288-5.854-0.073-9.026-1.165c-1.119-0.385-2.144-0.815-3.107-1.27
		c1.651-1.291,3.114-2.859,4.349-4.746c4.849-7.408,3.129-16.98-3.86-21.7c-3.518-2.375-7.464-3.35-11.659-3.379
		c-4.971-0.034-9.943,0.021-14.915-0.025c-2.293-0.022-3.833-1.217-4.157-3.023c-0.365-2.024,0.634-3.971,2.72-4.683
		c0.997-0.34,2.206-0.266,3.285-0.121c4.035,0.541,8.056,0.977,12.099,0.107c9.416-2.027,15.455-11.083,13.752-20.527
		c-0.544-3.021-1.796-5.649-4.074-8.011c1.269-0.413,2.317-0.755,3.366-1.095c4.375-1.418,4.375-1.417,4.149-6.031
		c-0.093-1.903-0.743-2.627-2.676-2.625c-7.375,0.005-14.756-0.103-22.124,0.158c-8.483,0.299-16.605,8.59-17.223,17.068
		c-0.336,4.614,0.613,8.874,3.01,12.808c-9.025,5.327-10.516,15.087-4.825,21.112c-0.949-0.297-1.914-0.575-2.913-0.808
		c-5.531-1.288-12.143-0.757-17.725,1.404c-5.452,2.113-9.375,4.725-12.925,7.218c-2.833,1.991-5.483,4.042-8.046,6.026
		c-3.463,2.681-6.734,5.213-10.479,7.658c-2.918,1.905-5.568,3.41-9.012,4.555c-2.979,0.99-5.625,1.337-8.483,1.121
		c-1.801-0.136-3.511-0.505-5.544-1.196c-3.866-1.312-6.68-3.126-9.401-4.88c-3.192-2.057-5.959-4.211-8.888-6.493l-1.465-1.142
		c-0.378-0.312-1.164-0.963-2.494-1.304c-1.194-0.306-2.468-0.043-3.445,0.715c-0.976,0.758-1.547,1.924-1.547,3.16v0.658
		c0,1.647,1.008,3.113,2.516,3.714l0.154,0.121c0.622,0.473,1.24,0.947,1.858,1.421c3.742,2.869,7.612,5.836,12.425,8.552
		c2.366,1.335,5.036,2.71,8.519,3.725c6.628,1.933,13.225,1.746,19.499-0.553c4.223-1.548,7.415-3.439,9.724-4.913
		c4.328-2.764,8.099-5.684,11.746-8.507c1.098-0.851,2.196-1.701,3.31-2.547c4-3.04,8.137-6.184,13.791-8.785
		c1.694-0.78,3.485-1.349,5.475-1.739c2.569-0.505,5.144-0.507,7.646-0.005c4.122,0.826,7.007,2.296,9.512,3.763
		c4.753,2.783,8.633,5.784,12.74,8.962l1.417,1.097c4.235,3.283,8.614,6.677,14.146,9.752c2.677,1.488,6.042,3.144,10.703,4.136
		c2.12,0.452,4.255,0.681,6.347,0.681c2.595,0,5.197-0.353,7.734-1.047c5.679-1.555,9.58-3.898,12.79-5.971
		c4.221-2.725,7.93-5.594,11.517-8.368c1.673-1.294,3.404-2.633,5.145-3.922c2.847-2.109,6.333-4.563,10.606-6.773
		c1.439-0.744,3.197-1.4,5.224-1.953c3.952-1.076,7.97-0.949,12.024,0.38c2.272,0.745,4.326,1.682,6.661,3.039
		c4.527,2.628,8.21,5.471,12.108,8.48c0.681,0.525,1.361,1.05,2.046,1.574l1.186,0.909c4.012,3.081,8.161,6.267,13.508,9.118
		c2.632,1.403,5.808,2.976,10.196,3.875c4.742,0.972,9.439,0.839,14.035-0.395c5.127-1.376,8.738-3.455,11.995-5.466
		c4.341-2.677,8.005-5.533,11.549-8.294l1.14-0.887c3.387-2.63,7.226-5.611,11.632-8.286c2.775-1.687,5.133-2.919,8.301-3.85
		c4.309-1.263,8.497-1.224,12.543,0.119c3.632,1.205,6.37,2.778,8.353,4.016c4.07,2.537,7.517,5.21,11.164,8.041
		c1.275,0.989,2.551,1.979,3.853,2.961l0.08,0.061c3.565,2.69,7.252,5.472,11.943,7.979c2.173,1.162,4.85,2.481,8.222,3.451
		c2.708,0.779,5.569,1.174,8.504,1.174c3.456,0,6.884-0.568,9.911-1.644c5.921-2.103,9.988-4.792,14.321-7.835
		c2.847-1.999,5.508-4.058,8.082-6.05c3.18-2.46,6.184-4.785,9.56-7.05c1.773-1.189,3.938-2.562,6.539-3.729
		c2.468-1.108,5.203-2.206,9.097-2.388c2.003-0.094,3.844,0.084,5.694,0.542c3.553,0.879,5.229,1.666,7.872,3.208
		c1.737,1.014,3.956,0.58,5.183-1.012C466.742,95.323,466.598,93.067,465.176,91.645z M178.69,48.196
		c4.539-0.043,7.839,3.351,7.842,8.065c0.003,4.689-3.167,8.01-7.663,8.027c-4.591,0.018-7.88-3.315-7.894-8.001
		C170.963,51.774,174.334,48.239,178.69,48.196z M127.585,48.196c4.461,0.017,7.695,3.369,7.735,8.017
		c0.041,4.698-3.206,8.066-7.786,8.076c-4.458,0.009-7.764-3.368-7.786-7.955C119.728,51.737,123.153,48.18,127.585,48.196z
		 M119.941,94.668c0.688-0.453,1.473-0.791,2.34-0.946c2.041-0.363,4.135-0.421,6.491-0.643c1.266,0.17,2.819,0.268,4.32,0.605
		c2.317,0.521,3.995,1.928,4.383,4.334c0.414,2.57-0.68,4.707-2.919,5.932c-0.458,0.25-0.918,0.468-1.38,0.668
		c-1.412-1.059-2.809-2.133-4.235-3.239c-1.532-1.188-3.064-2.377-4.64-3.552C122.909,96.789,121.467,95.728,119.941,94.668z
		 M181.781,100.968c-1.713,1.32-3.485,2.686-5.268,4.001c-0.221,0.164-0.44,0.324-0.661,0.486c-1.311-0.235-2.609-0.595-3.811-1.102
		c-2.611-1.1-3.819-3.467-3.504-5.889c0.27-2.076,2.4-4.156,4.878-4.76c0.311-0.075,0.624-0.17,0.941-0.191
		c1.756-0.127,3.514-0.233,6.024-0.395c0.953,0.142,2.67,0.258,4.311,0.678c1.495,0.382,2.665,1.215,3.372,2.434
		C185.891,97.812,183.81,99.404,181.781,100.968z M300.9,61.628c0-1.55-0.002-3.102,0-4.652c0.002-4.861,4.65-9.098,9.514-8.672
		c5.994,0.525,9.664,4.346,10.102,10.969c0.346,5.248-2.906,10.257-8.012,11.532c-3.74,0.935-7.307,0.144-10.66-1.599
		c-0.473-0.246-0.869-1.069-0.9-1.646C300.832,65.588,300.9,63.606,300.9,61.628z"/>
</g>
</svg>
